<?xml version="1.0" standalone="no"?>
<!DOCTYPE svg PUBLIC "-//W3C//DTD SVG 20010904//EN"
 "http://www.w3.org/TR/2001/REC-SVG-20010904/DTD/svg10.dtd">
<svg version="1.0" xmlns="http://www.w3.org/2000/svg"
 width="35.000000pt" height="35.000000pt" viewBox="0 0 35.000000 35.000000"
 preserveAspectRatio="xMidYMid meet">
<metadata>
Created by potrace 1.16, written by Peter Selinger 2001-2019
</metadata>
<g transform="translate(0.000000,35.000000) scale(0.015556,-0.015556)"
fill="#000000" stroke="none">
<path d="M825 1761 c-99 -13 -160 -38 -220 -92 -113 -104 -129 -184 -123 -607
4 -267 6 -291 27 -343 43 -110 104 -173 207 -212 57 -21 72 -22 404 -22 315 0
350 2 404 19 74 25 131 67 173 130 60 89 66 122 71 433 6 418 -9 496 -119 598
-98 90 -133 97 -479 101 -157 1 -312 -1 -345 -5z m680 -134 c51 -23 91 -61
118 -112 18 -34 22 -68 31 -239 13 -264 0 -482 -34 -550 -25 -52 -81 -99 -139
-117 -52 -15 -517 -23 -629 -10 -142 16 -206 61 -238 169 -20 64 -30 454 -15
599 17 180 64 242 206 276 11 3 164 5 340 4 285 -2 324 -4 360 -20z"/>
<path d="M1445 1540 c-27 -10 -42 -29 -50 -62 -6 -22 -1 -33 23 -58 37 -36 62
-38 98 -7 62 54 4 158 -71 127z"/>
<path d="M1019 1437 c-91 -34 -155 -95 -197 -185 -21 -47 -24 -64 -20 -140 3
-72 9 -96 33 -140 33 -60 84 -110 147 -144 37 -20 58 -23 143 -23 85 0 106 3
143 23 63 33 114 84 148 144 27 49 29 61 29 153 0 85 -3 106 -23 143 -34 63
-84 114 -144 147 -44 24 -67 30 -138 32 -54 2 -98 -2 -121 -10z m189 -113 c80
-33 132 -111 132 -199 0 -188 -227 -285 -364 -157 -84 79 -88 221 -8 306 58
61 161 83 240 50z"/>
</g>
</svg>
