<?xml version="1.0" standalone="no"?>
<!DOCTYPE svg PUBLIC "-//W3C//DTD SVG 20010904//EN"
 "http://www.w3.org/TR/2001/REC-SVG-20010904/DTD/svg10.dtd">
<svg version="1.0" xmlns="http://www.w3.org/2000/svg"
 width="612.000000pt" height="408.000000pt" viewBox="0 0 612.000000 408.000000"
 preserveAspectRatio="xMidYMid meet">

<g transform="translate(0.000000,408.000000) scale(0.100000,-0.100000)"
fill="#000000" stroke="none">
<path d="M3600 2372 c0 -5 11 -14 23 -19 32 -15 59 -74 51 -110 -11 -43 -48
-96 -95 -136 -23 -20 -41 -39 -38 -41 11 -10 110 49 149 89 36 36 44 51 47 92
4 39 1 53 -18 77 -31 39 -119 74 -119 48z"/>
<path d="M2644 2331 c-43 -11 -107 -44 -111 -58 -10 -29 150 -52 367 -53 223
0 523 38 465 60 -11 4 -47 3 -80 -2 -33 -4 -172 -12 -310 -17 -249 -8 -292 -5
-324 25 -12 11 -8 16 20 33 35 21 27 25 -27 12z"/>
<path d="M2700 2123 c-30 -27 -32 -33 -21 -47 29 -34 140 -56 287 -56 161 1
384 31 384 52 0 21 -64 36 -115 26 -27 -5 -131 -12 -231 -14 -202 -5 -254 4
-264 46 l-6 24 -34 -31z"/>
<path d="M2754 1927 c-24 -21 -27 -29 -18 -44 41 -70 337 -98 509 -47 76 22
81 28 48 54 -26 20 -34 22 -117 15 -49 -4 -99 -10 -110 -14 -15 -6 -204 8
-264 18 -1 1 -6 11 -10 22 -8 21 -8 21 -38 -4z"/>
<path d="M2450 1774 c-19 -8 -45 -25 -57 -36 -27 -25 -18 -42 30 -57 66 -21
373 -51 527 -50 204 0 545 40 573 68 5 5 -9 6 -35 1 -44 -8 -257 -28 -340 -31
-170 -8 -460 4 -518 20 -19 6 -59 15 -88 22 -62 13 -76 33 -41 60 22 17 23 19
4 18 -11 0 -36 -7 -55 -15z"/>
<path d="M3575 1720 c-3 -6 1 -7 9 -4 18 7 21 14 7 14 -6 0 -13 -4 -16 -10z"/>
<path d="M3700 1659 c0 -5 5 -7 10 -4 6 3 10 8 10 11 0 2 -4 4 -10 4 -5 0 -10
-5 -10 -11z"/>
<path d="M3586 1624 c-44 -13 -138 -33 -208 -43 -71 -10 -132 -21 -135 -25
-18 -18 224 9 321 35 47 13 126 47 126 54 0 8 -21 4 -104 -21z"/>
<path d="M3080 1550 c-19 -12 57 -13 115 -1 36 8 34 9 -30 10 -38 0 -77 -4
-85 -9z"/>
<path d="M2462 1401 l-33 -6 1 -258 c1 -289 -5 -324 -56 -378 -34 -35 -34 -36
-15 -53 18 -16 22 -16 49 -2 36 19 80 70 86 99 3 12 8 38 12 57 4 19 9 146 11
281 4 270 5 269 -55 260z"/>
<path d="M2655 1245 c-22 -8 -41 -15 -42 -15 -2 0 -3 -7 -3 -15 0 -12 17 -15
95 -15 89 0 95 -1 110 -24 9 -14 15 -39 13 -58 l-3 -33 -60 -1 c-41 0 -73 -7
-102 -22 -60 -31 -75 -58 -71 -128 4 -69 27 -91 104 -99 42 -4 61 0 97 20 45
23 46 24 52 4 5 -16 14 -19 38 -17 l32 3 3 140 c1 77 -2 149 -7 160 -5 11 -15
35 -21 53 -7 18 -25 39 -41 47 -36 19 -142 19 -194 0z m173 -217 c6 -7 8 -34
5 -61 -5 -45 -8 -48 -52 -68 -42 -18 -49 -19 -77 -5 -37 17 -55 76 -32 103 31
37 134 57 156 31z"/>
<path d="M3455 1246 c-27 -9 -40 -19 -40 -31 0 -16 9 -18 92 -16 88 2 92 1
108 -23 9 -13 15 -37 13 -53 -3 -27 -6 -28 -70 -35 -98 -9 -157 -49 -175 -118
-12 -44 6 -92 43 -116 37 -25 129 -22 177 5 l37 21 11 -24 c8 -16 17 -22 29
-19 17 4 19 21 22 171 4 184 0 204 -54 235 -35 20 -132 21 -193 3z m144 -212
c27 -6 31 -11 31 -40 0 -54 -15 -80 -59 -97 -57 -23 -98 -8 -107 40 -9 47 7
77 47 90 43 14 50 14 88 7z"/>
<path d="M2978 1245 c-2 -3 8 -42 23 -88 15 -45 42 -131 60 -192 18 -60 39
-116 48 -122 22 -19 75 -16 93 5 30 35 103 253 122 365 l7 37 -39 0 c-37 0
-38 -1 -50 -47 -6 -27 -18 -77 -26 -113 -33 -136 -59 -181 -71 -123 -8 39 -24
92 -40 133 -8 19 -21 61 -30 93 -15 57 -16 57 -54 57 -21 0 -40 -2 -43 -5z"/>
</g>
</svg>
