<?xml version="1.0" standalone="no"?>
<!DOCTYPE svg PUBLIC "-//W3C//DTD SVG 20010904//EN"
 "http://www.w3.org/TR/2001/REC-SVG-20010904/DTD/svg10.dtd">
<svg version="1.0" xmlns="http://www.w3.org/2000/svg"
 width="35.000000pt" height="35.000000pt" viewBox="0 0 35.000000 35.000000"
 preserveAspectRatio="xMidYMid meet">
<metadata>
Created by potrace 1.16, written by Peter Selinger 2001-2019
</metadata>
<g transform="translate(0.000000,35.000000) scale(0.015556,-0.015556)"
fill="#000000" stroke="none">
<path d="M975 2239 c-229 -29 -448 -135 -621 -301 -110 -106 -172 -189 -234
-313 -177 -357 -153 -779 64 -1114 53 -83 176 -214 260 -279 55 -42 202 -132
217 -132 3 0 9 46 12 103 5 76 27 187 85 432 76 321 77 331 63 370 -9 24 -15
78 -15 136 -1 91 1 100 34 165 28 54 45 74 83 98 117 72 235 13 245 -121 4
-62 -6 -110 -64 -301 -39 -131 -43 -189 -13 -241 34 -60 81 -86 158 -86 117 1
205 69 272 210 61 127 74 188 74 360 0 142 -1 153 -27 208 -90 191 -309 282
-555 231 -252 -52 -425 -261 -426 -514 0 -94 14 -145 59 -211 l35 -53 -17 -68
c-21 -90 -37 -99 -105 -61 -126 68 -195 218 -193 418 3 260 163 497 416 615
112 53 192 71 333 77 168 7 264 -11 390 -72 172 -84 287 -211 347 -384 33 -94
32 -316 -1 -441 -85 -319 -297 -510 -567 -510 -103 0 -173 24 -238 82 -26 22
-48 39 -50 37 -1 -2 -21 -78 -44 -169 -38 -147 -70 -231 -139 -361 -2 -3 34
-13 79 -22 397 -79 774 40 1048 329 259 273 362 642 280 1014 -48 222 -151
402 -322 566 -250 239 -575 346 -923 303z"/>
</g>
</svg>
