<?xml version="1.0" standalone="no"?>
<!DOCTYPE svg PUBLIC "-//W3C//DTD SVG 20010904//EN"
 "http://www.w3.org/TR/2001/REC-SVG-20010904/DTD/svg10.dtd">
<svg version="1.0" xmlns="http://www.w3.org/2000/svg"
 width="35.000000pt" height="35.000000pt" viewBox="0 0 35.000000 35.000000"
 preserveAspectRatio="xMidYMid meet">
<metadata>
Created by potrace 1.16, written by Peter Selinger 2001-2019
</metadata>
<g transform="translate(0.000000,35.000000) scale(0.015982,-0.015217)"
fill="#000000" stroke="none">
<path d="M930 2175 c-349 -56 -649 -282 -799 -606 -241 -519 -24 -1140 489
-1399 304 -153 671 -148 976 14 501 266 704 883 460 1398 -199 420 -665 666
-1126 593z m-66 -192 c-50 -52 -140 -179 -174 -246 l-35 -67 -143 0 c-168 0
-165 -5 -50 106 105 101 212 168 343 215 77 27 92 25 59 -8z m186 -143 l0
-170 -140 0 c-77 0 -140 2 -140 5 0 9 63 111 93 150 38 50 169 185 179 185 5
0 8 -76 8 -170z m228 48 c48 -56 142 -195 142 -209 0 -5 -61 -9 -135 -9 l-135
0 0 171 0 171 41 -36 c23 -19 62 -59 87 -88z m131 93 c96 -35 185 -86 268
-154 57 -45 143 -137 143 -151 0 -3 -64 -6 -143 -6 l-143 0 -31 63 c-30 61
-102 166 -164 240 -17 20 -26 37 -20 37 6 0 46 -13 90 -29z m-799 -417 c0 -3
-9 -36 -20 -72 -24 -80 -50 -229 -50 -283 l0 -39 -180 0 -180 0 6 48 c10 80
33 171 61 241 47 119 32 111 209 111 85 0 154 -3 154 -6z m435 -194 l0 -195
-202 -3 -203 -2 0 33 c0 72 32 229 67 325 l15 42 161 -2 162 -3 0 -195z m436
173 c25 -63 60 -223 66 -295 l6 -78 -202 0 -201 0 0 200 0 200 160 0 160 0 11
-27z m449 -45 c35 -80 64 -183 74 -270 l7 -58 -176 0 c-132 0 -176 3 -179 13
-2 6 -9 55 -15 107 -9 83 -37 213 -57 264 -6 14 9 16 154 16 l159 0 33 -72z
m-1382 -530 c11 -90 32 -191 56 -265 l7 -23 -159 0 -159 0 -32 71 c-30 68 -62
184 -75 277 l-6 42 178 0 178 0 12 -102z m502 -93 l0 -195 -165 0 -165 0 -11
28 c-23 59 -58 215 -65 286 l-7 76 207 0 206 0 0 -195z m497 118 c-7 -83 -37
-220 -61 -278 l-15 -35 -160 0 -161 0 0 195 0 195 201 0 202 0 -6 -77z m458
25 c-12 -87 -43 -198 -77 -270 l-31 -68 -160 0 c-148 0 -159 1 -152 18 21 52
56 216 62 289 l6 83 179 0 180 0 -7 -52z m-1310 -519 c48 -89 71 -122 143
-207 50 -59 52 -62 25 -56 -57 14 -173 64 -244 106 -71 42 -249 204 -249 227
0 8 42 11 142 9 l143 -3 40 -76z m351 68 c2 -7 3 -86 2 -176 l-3 -164 -52 47
c-29 26 -74 75 -101 109 -49 61 -122 175 -122 190 0 4 61 7 135 7 101 0 137
-3 141 -13z m374 2 c0 -39 -230 -329 -261 -329 -5 0 -9 77 -9 170 l0 170 135
0 c91 0 135 -4 135 -11z m382 -26 c-108 -137 -313 -269 -476 -307 -28 -7 -28
-6 19 46 51 56 138 184 174 256 l21 42 146 0 146 0 -30 -37z"/>
</g>
</svg>
